<?xml version="1.0" standalone="no"?>
<!DOCTYPE svg PUBLIC "-//W3C//DTD SVG 20010904//EN"
 "http://www.w3.org/TR/2001/REC-SVG-20010904/DTD/svg10.dtd">
<svg version="1.0" xmlns="http://www.w3.org/2000/svg"
 width="256.000000pt" height="256.000000pt" viewBox="0 0 256.000000 256.000000"
 preserveAspectRatio="xMidYMid meet">
<metadata>
Created by potrace 1.14, written by Peter Selinger 2001-2017
</metadata>
<g transform="translate(0.000000,256.000000) scale(0.100000,-0.100000)"
fill="#000000" stroke="none">
<path d="M1109 2549 c-374 -54 -705 -266 -904 -577 -34 -53 -51 -68 -115 -104
-41 -22 -78 -45 -81 -50 -5 -7 -5 -44 0 -85 0 -7 14 -19 31 -28 27 -14 28 -18
19 -43 -61 -157 -73 -492 -25 -677 2 -5 6 -23 10 -40 4 -16 11 -39 16 -50 5
-11 14 -38 21 -60 51 -172 209 -398 373 -533 158 -131 311 -210 516 -264 109
-30 125 -31 305 -32 174 -1 199 2 296 26 249 63 439 169 613 344 241 240 364
534 371 884 3 151 -9 250 -44 368 l-19 62 28 15 c34 18 44 54 31 116 0 4 -36
25 -78 47 -69 36 -83 49 -118 104 -82 129 -204 257 -334 351 -124 89 -323 178
-461 206 -30 6 -68 13 -85 17 -49 10 -306 12 -366 3z"/>
</g>
</svg>
